<?xml version="1.0" encoding="utf-8"?>
<!-- Generator: Adobe Illustrator 21.0.0, SVG Export Plug-In . SVG Version: 6.00 Build 0)  -->
<svg version="1.1" id="Layer_1" xmlns="http://www.w3.org/2000/svg" xmlns:xlink="http://www.w3.org/1999/xlink" x="0px" y="0px"
	 viewBox="0 0 226.5 32" style="enable-background:new 0 0 226.5 32;" xml:space="preserve">
<style type="text/css">
	.st0{fill:#2D4EF1;}
</style>
<g>
	<g>
		<g>
			<g>
				<g>
					<path class="st0" d="M180,14.1c0.2,0,0.2-0.1,0.2-0.1C179.8,14,180,14.1,180,14.1z"/>
					<polygon class="st0" points="175.9,14.3 176,14.3 175.4,14.4 					"/>
					<path class="st0" d="M172,14.3c0.4,0.2,1.4,0,2.1,0l0.1,0l0.3-0.1C173.7,14.2,172.6,14.3,172,14.3z"/>
					<path class="st0" d="M170,13.9c0.1,0.1-0.4,0.1,0.5,0c0,0-0.1,0-0.1,0C170.3,13.9,170.2,13.9,170,13.9z"/>
					<path class="st0" d="M170.4,13.9C170.8,13.9,170.1,13.9,170.4,13.9L170.4,13.9z"/>
					<path class="st0" d="M168.5,14l0.5-0.1c-0.1,0-0.6-0.1-0.4-0.1C168.1,13.8,168.2,13.9,168.5,14z"/>
					<path class="st0" d="M168,14.1l0.3,0C168.3,14,168.2,14,168,14.1z"/>
					<path class="st0" d="M168.9,14l-0.6,0.1c0.1,0,0.1,0.1,0.3,0C168.5,14.1,168.6,14,168.9,14z"/>
					<path class="st0" d="M169.2,14c0.3,0,0.7,0.1,0.2,0.1C170.4,14.1,170.2,14,169.2,14z"/>
					<path class="st0" d="M171.9,14.5l0.4,0.1l0.3-0.1C172.4,14.5,171.8,14.4,171.9,14.5z"/>
					<path class="st0" d="M165.2,13.9c0,0,0.2,0.1,0.2,0.1l0.4,0C165.6,13.9,165.2,13.9,165.2,13.9z"/>
					<path class="st0" d="M165.4,14l-0.6,0.1C165.4,14.1,165.5,14.1,165.4,14z"/>
					<polygon class="st0" points="167.9,14.3 168.9,14.1 167.7,14.3 					"/>
					<polygon class="st0" points="163,13.9 163.3,13.8 162.7,13.9 					"/>
					<path class="st0" d="M161.5,13.9c0.2-0.1-0.3-0.1-0.1-0.2c-0.4,0-0.8,0.1-1.1,0.1C160.7,13.8,161,13.8,161.5,13.9z"/>
					<path class="st0" d="M159.8,13.9c0.2,0,0.3,0,0.5-0.1C160.2,13.9,160,13.9,159.8,13.9z"/>
					<path class="st0" d="M163.8,14.1c0,0-0.1-0.1-0.5-0.1l0.2,0.1C163.7,14.1,163.8,14.1,163.8,14.1z"/>
					<path class="st0" d="M163.6,14.1L163.6,14.1c-0.3,0-0.4,0-0.5,0C163.2,14,163.3,14.1,163.6,14.1z"/>
					<path class="st0" d="M163.9,14.1C163.9,14.1,163.9,14.1,163.9,14.1C163.9,14.1,163.9,14.1,163.9,14.1z"/>
					<path class="st0" d="M166.4,14.2c-0.3,0.1-1.1,0.1-0.4,0.2C166.3,14.3,165.9,14.3,166.4,14.2z"/>
					<path class="st0" d="M164.2,14.2l0.6,0c0,0-0.1-0.1,0-0.1L164.2,14.2z"/>
					<polygon class="st0" points="163.9,14.2 164.2,14.2 164,14.2 					"/>
					<path class="st0" d="M160.9,14c-0.3,0-0.6,0.1-0.9,0.1c0.4,0,0.7,0,1.1,0C161.1,14.1,161.3,14,160.9,14z"/>
					<path class="st0" d="M162.2,14C162.2,14,162.2,14,162.2,14C162.2,14.1,162.2,14.1,162.2,14z"/>
					<path class="st0" d="M156.7,14.1C156.7,14.1,156.7,14.1,156.7,14.1C156.8,14.1,156.8,14.1,156.7,14.1L156.7,14.1z"/>
					<path class="st0" d="M161.1,14.1c0.3,0,0.4,0,0.6,0C161.5,14.1,161.3,14.1,161.1,14.1C161,14.1,161,14.1,161.1,14.1z"/>
					<path class="st0" d="M158.9,14c0.1,0,0.3,0,0.5,0.1C159.2,14,158.9,13.9,158.9,14z"/>
					<path class="st0" d="M162.1,14C162.1,14,162.1,14,162.1,14C162,14,162,14,162.1,14z"/>
					<path class="st0" d="M162.1,14c-0.1,0-0.2,0-0.4,0.1C161.9,14.1,162,14.1,162.1,14C162.1,14,162.1,14,162.1,14z"/>
					<path class="st0" d="M155.7,14.8c0-0.1,0.8-0.2,1.4-0.1c0.6-0.1,0.2-0.4-0.3-0.6c0,0,0,0.1-0.6,0.1c0.2,0.1,1.4,0.1,0.8,0.2
						c-0.8,0.1-0.7,0-1.1-0.1c0.3,0.1-1,0.2-0.9,0.4L155.7,14.8C155.8,14.7,155.5,14.7,155.7,14.8z"/>
					<path class="st0" d="M157.9,14.1l0.3,0c-0.3,0-0.5-0.1-0.9-0.1c-0.4,0-0.5,0.1-0.5,0.1L157.9,14.1L157.9,14.1z"/>
					<path class="st0" d="M159.3,14.1c-0.2,0.1-0.8,0.2-0.4,0.3c0.7,0,0.5-0.1,1-0.1C158.7,14.2,160.2,14.2,159.3,14.1
						c0.2,0,0.5,0,0.7,0C159.8,14.1,159.6,14,159.3,14.1C159.4,14,159.4,14,159.3,14.1L159.3,14.1C159.4,14,159.4,14,159.3,14.1
						C159.4,14,159.5,14.1,159.3,14.1C159.4,14,159.4,14,159.3,14.1C159.4,14.1,159.3,14.1,159.3,14.1
						C159,14.1,159.3,14.1,159.3,14.1C159.4,14,159.4,14,159.3,14.1C159.4,14,159.4,14,159.3,14.1l-1.1,0
						C158.4,14.1,158.8,14.1,159.3,14.1z"/>
					<path class="st0" d="M165.4,14.6C165.3,14.6,165.3,14.6,165.4,14.6C165.3,14.6,165.2,14.6,165.4,14.6z"/>
					<path class="st0" d="M164.9,14.6c0.1,0,0.2-0.1,0.4,0c0.2,0,0,0.1,0,0.1c0.2,0,0.6-0.1,0.1-0.1l-0.1,0c-0.5,0-1.1-0.2-1-0.2
						C164.4,14.4,164.6,14.5,164.9,14.6z"/>
					<path class="st0" d="M162.1,14.4l-1,0.1l0.5,0.1l0-0.1C162.1,14.5,162,14.4,162.1,14.4z"/>
					<polygon class="st0" points="156.6,14 156.7,13.9 156.1,14.1 					"/>
					<polygon class="st0" points="155.3,14 155.3,13.9 155,14 					"/>
					<path class="st0" d="M81.7,15.3l-0.3,0C81.5,15.3,81.6,15.3,81.7,15.3z"/>
					<path class="st0" d="M83.8,15.3L83.8,15.3C83.8,15.2,83.7,15.3,83.8,15.3z"/>
					<path class="st0" d="M123.2,14c-0.4-0.1-0.9-0.2-0.9-0.1l0.1,0.1C122.8,14,123.1,14,123.2,14z"/>
					<path class="st0" d="M101.3,14.7c0,0,0.1,0,0.1,0c0.1,0,0.2-0.1,0.3-0.1C101.6,14.6,101.5,14.7,101.3,14.7z"/>
					<path class="st0" d="M101,15.1l-0.6-0.1C100.6,15.1,100.7,15.1,101,15.1z"/>
					<path class="st0" d="M70,15.4l-0.3,0.1C70.2,15.5,70,15.4,70,15.4z"/>
					<path class="st0" d="M141.9,14.1c-0.4,0-0.7-0.1-0.9-0.1C141.4,14.1,141.8,14.2,141.9,14.1z"/>
					<path class="st0" d="M82.5,14.1c-0.2,0-0.3,0-0.3,0.1C82.4,14.2,82.6,14.1,82.5,14.1z"/>
					<path class="st0" d="M139.9,14c0.1,0,0.1,0,0.2,0c0.3,0,0.5,0,0.9,0C140.7,14,140.3,13.9,139.9,14z"/>
					<path class="st0" d="M27.7,15.3C27.7,15.3,27.7,15.3,27.7,15.3C27.6,15.3,27.7,15.3,27.7,15.3z"/>
					<path class="st0" d="M15.4,14.2c0.1,0,0.3,0,0.5,0C15.8,14.2,15.7,14.2,15.4,14.2z"/>
					<path class="st0" d="M150,14C150.3,14,150.1,14,150,14L150,14z"/>
					<path class="st0" d="M151.4,14.4c-0.1,0-0.1,0-0.1,0.1C151.3,14.4,151.3,14.4,151.4,14.4z"/>
					<path class="st0" d="M137.2,14.7C137.2,14.7,137.2,14.7,137.2,14.7C137.2,14.7,137.2,14.7,137.2,14.7z"/>
					<path class="st0" d="M150.4,14c-0.1,0-0.2,0-0.4,0C150.2,14,150.3,14,150.4,14z"/>
					<path class="st0" d="M150.4,14c0.1,0,0.2,0,0.2,0C150.7,14,150.6,14,150.4,14z"/>
					<path class="st0" d="M149.6,14c0.2,0,0.3,0,0.4,0c-0.1,0-0.1,0-0.1,0C150,14,149.8,14,149.6,14z"/>
					<path class="st0" d="M50.4,15C50.4,15,50.3,15,50.4,15C50,15,50.2,15,50.4,15z"/>
					<path class="st0" d="M116,15.2C116.1,15.2,116.1,15.2,116,15.2C116.1,15.2,116,15.2,116,15.2L116,15.2z"/>
					<path class="st0" d="M115.1,15.3c0.4-0.1,0.7-0.1,1-0.1l-0.3-0.3L115.1,15.3z"/>
					<path class="st0" d="M76.6,15.3l0.7,0.1c-0.8,0.2-1.5,0.1-0.8,0.2c0.1-0.3,2.7,0,2.8-0.4l0.5,0.1c-0.1,0-0.2,0-0.3,0
						c0.9,0.2,0.7-0.2,1.8-0.2c0.4,0,0.7,0.1,0.4,0.1l0.9-0.1c0.3,0,0.2,0.1-0.1,0.1l1.4,0l0,0c0.2-0.1,0.6-0.1,0.9-0.2
						c0.3,0-0.2,0-0.1,0.1l0.8-0.1c0.3,0.1-0.3,0.2-0.8,0.2c0.7,0.3,0.6-0.1,2.2,0.1l-0.7,0c0.5,0.2,1,0.1,1.8,0.2
						c-0.2-0.1-1.6-0.3-0.8-0.4c0.2,0,0.5,0,1,0c0,0.1,0.4,0.1,1,0.1l0,0.2c0.6,0,0.5-0.1,0.9-0.2c0.7,0,0.8,0.1,0.9,0.2
						c1,0-0.7-0.2,0.5-0.2c0.9,0.1,1.5,0,2.5-0.1c0.6,0.1-0.1,0.1,0.1,0.1l0.5-0.1c0.1,0,0.1,0,0.1,0.1c0.5,0,0-0.2,0.8-0.2
						c0.2-0.2,1.5,0.3,2.3,0.1c0.2,0-0.1,0.1,0,0.2c1.2-0.1,1-0.1,2-0.3l0.8,0.1c-0.6-0.1,0.2-0.3,0.9-0.4c-0.2-0.1-0.4-0.1-0.5-0.1
						l1.1-0.1c0.1,0,0,0.1-0.2,0.1c0.1,0,0.1,0,0.2,0c0.4,0.1,0.2,0.2-0.1,0.2c-0.1,0-0.3-0.1-0.4-0.1c-0.3,0.1-0.5,0.2-0.5,0.3
						c0.1,0,0.2,0,0.4,0c-0.1,0-0.1,0-0.1,0.1c0,0,0.2,0,0.3-0.1l0.3,0.2l0.1-0.1l1.5,0.1c1-0.2,1.9-0.4,3.6-0.5
						c-0.4,0.1-0.1,0.2-0.1,0.4c-0.5-0.2-1.3,0.1-2.1,0c0.4,0,0.3,0.1,0.2,0.1l1.5-0.1c0,0.1,0.3,0.1,0.7,0.1
						c-0.3-0.3,1.1-0.2,1.8-0.2c0,0.1-0.1,0.2-0.9,0.1c0.8,0.2,1.1-0.3,1.9-0.1c-0.2,0-0.3,0-0.4,0c0.4-0.1,1.5,0,1.2,0.1l-0.2,0
						c1.2,0,3.7,0,3.9-0.2c0,0-0.2,0.3-0.2,0.3l2.2-0.7c-0.2,0.2,0.5,0.6-0.5,0.7c0.3,0,0.7,0.1,1.3,0c-0.2,0-0.5-0.3-0.2-0.3
						c0.7,0.2,0.5,0.1,1.4,0.3c-0.3,0,0-0.3,0.5-0.3c-0.1,0,0,0.3-0.1,0.3l1.2-0.3c-0.3,0.1-0.1,0.2,0.2,0.3c-0.1-0.1,1,0,1.3,0
						l-0.5-0.1c1.3,0,1.3-0.4,2.6-0.4c-0.2,0.1-0.4,0.4,0.3,0.4c0.3-0.1,1.4-0.7,2.5-0.8l0.2,0.1l0.9-0.1c-0.6,0.2-2.1,0.7-3,0.8
						c0.5,0.1,0.1,0.1,0.9,0.1c0.3,0.1-0.4,0.1-0.6,0.1l1.7,0c-0.1-0.2,1.3-0.2,1.3-0.3l-1.9,0.2c-0.1-0.2,1.1-0.5,2.3-0.4
						c0.3,0.1-0.2,0.3-0.2,0.4c0.2-0.1,1.2-0.1,1.3-0.1l-0.5,0.1c0.7,0.1,1.1-0.2,1.9-0.1c0.3,0,0.8,0.2,0.9,0.1
						c-0.5-0.2-0.6-0.8-0.2-0.9c0.1,0,1.5,0.2,1.8,0.3c0.5,0.2-0.7,0.4-0.3,0.5c0,0,0.3-0.1,0.4-0.1c0.3,0-0.1,0.1,0.5,0.1
						c0.1-0.2,1.3,0,0.3-0.1c0.6,0,0.7,0,1.4,0c-0.2-0.1,0.7-0.4,1.3-0.4c0,0,0.1,0.1,0.2,0.1c1.3,0,2,0.1,3.2,0.1
						c0.1,0,0.7,0.1,0.4,0.2c0.2,0,0.3-0.1,0.7-0.1c0.7,0.1-0.8,0-0.3,0.2c0-0.1,1-0.1,1.5-0.2c-0.2-0.2-1.2,0-1.8,0
						c0-0.2,0.9-0.4,2.2-0.5c1-0.1,0.4,0.1,0.6,0.1c1.9,0,1.6-0.4,3.2-0.2c0.6,0.1,0,0.3,0.2,0.4c-0.8,0.1-1.3-0.1-1.8-0.1l0.7,0.1
						c-0.3,0-0.8,0.1-1.1,0c0.5,0.1,3.2,0,4.6,0.1c0.3,0,0.7-0.1,0.5-0.1l-0.5,0c-0.4-0.1,0.9-0.1,0.3-0.2c0.6-0.1,1.3-0.2,2.2-0.1
						l0.2,0.2c0,0-0.6-0.1-0.8,0c0.4-0.1,1.3,0.2,1.7,0l-0.6-0.1c0.6-0.1,1.4-0.2,2.2-0.2c-0.4-0.2-0.2,0-0.7-0.2
						c0.5,0.2-2,0-1.2,0.2c-0.6-0.2-1-0.1-1.7-0.3c0,0.1,0.3,0.1-0.4,0.1c0,0-0.1,0-0.1,0c0,0,0,0,0,0c0,0,0,0,0,0c0,0,0,0,0,0
						c0.2,0,0.3,0,0.3,0.1c-0.3,0.1-1.4,0.1-1.7,0.2c-0.4,0,0.2-0.1,0-0.1l-0.5,0.1c-0.1-0.1-1-0.2-0.1-0.3l-0.8,0
						c-0.5-0.1-1.1-0.1-1.5,0c-0.4,0-1,0.1-0.6,0l-1.3,0.1l0,0c-1.3,0-2.6,0.2-4,0c-0.4,0-0.9,0.1-1.6,0l-0.1-0.1
						c-0.5,0-1.6-0.1-1.9,0c-0.6-0.3-2.6-0.1-3.6-0.1l0,0.1c-0.7,0-1.3,0-2.1,0.1l0.1,0.1c-0.7,0.1-1.8-0.1-2.9-0.1
						c0.1,0,0.4,0,0.6,0c-1.3-0.3-2.8,0.2-4,0c-0.3,0-0.5,0-0.7,0c0,0,0.1,0,0.1,0c0,0-0.1,0-0.1,0c-0.1,0-0.3,0-0.4-0.1
						c0.1,0,0.2,0,0.4,0.1c-0.2,0-0.6,0-0.9,0l-0.1-0.1c0,0-0.1,0-0.1,0c-0.3,0-0.3,0.1-0.1,0.1c-0.2,0-0.3,0-0.5,0.1
						c-0.3-0.2-0.9,0.1-1.3-0.1c-0.2,0.1-1.7,0.1-1.9,0.3c0,0-0.1,0,0.1,0c-0.4,0-0.8,0-1.1,0l-0.2-0.2l-0.8,0.2
						c-0.5-0.1-0.7-0.1-0.2-0.3c-1.2,0.2-1,0.1-2,0.2l0.1-0.1c-0.4,0-1,0.1-1.2,0.1c-0.8-0.2-4.1,0-6.3-0.2c0.4,0.3-1-0.1-1.1,0.1
						c-0.1-0.1-0.4-0.1-0.1-0.2c-1.1,0.1-1.6-0.1-2.4,0.1c-0.1-0.1,0.2-0.1,0.1-0.1c-0.1,0-0.3,0.1-0.5,0c-0.1,0,0.2-0.1,0.3-0.1
						c-1.1,0-1.2,0.2-1.3,0.4c-0.6-0.1-0.8-0.1-1.3,0c-0.2-0.1-0.5-0.1,0.2-0.2c-0.4,0-2.4-0.1-2.4,0.1c-0.1,0-0.5,0-0.6,0
						c-0.9,0-1,0-1.8,0l0.2,0c-0.3,0.2-0.7,0-1.4,0.1l0,0c-1.6-0.1-0.7,0.1-2.3-0.1l0.1,0.1c-0.1,0.3-1.4-0.2-2.3-0.1l0.3,0.1
						c-0.5,0.1-1.4-0.4-1.9-0.4c-0.1,0,0.2,0,0.3-0.1c-1.3-0.2-0.2,0.2-1.1,0.2C88,14.1,88.4,14,87.7,14c-0.3-0.1-1.9,0.3-2.8,0.1
						c0.2,0.1,0.4,0.1-0.1,0.2c-0.7,0-1.9-0.2-2.5,0c-0.1,0-0.1,0-0.1-0.1c-0.5,0.1-1.7,0.1-2,0.2c-0.5-0.4-3.3,0.2-3.3-0.2l-1.6,0
						l0,0c-1,0-1.4,0.1-1.8,0.2c-0.2,0-0.1-0.1,0-0.1c-1.5-0.1-1.7-0.1-2.9,0.1l-0.1-0.1c-0.3,0.1-2.2-0.2-3.7,0c0,0,0,0,0.2-0.1
						c-1.7,0.1-4-0.3-4.6,0.1l-1.1,0.1c1.4,0-0.2,0.2,0.4,0.3c-0.6,0-1.5-0.1-0.8-0.2l0.1,0c0.3-0.2-1.8-0.1-1.7-0.2
						c-2.8,0-5.6-0.1-8.2-0.1l0.3,0.2l-0.9,0c-0.2,0-0.3-0.1,0.3-0.1c-0.3-0.1-1.1,0.1-1.1,0.1c-1.3-0.1,0.5-0.2,0.1-0.2l-0.5,0
						l0.1,0c-0.4,0.1-0.5,0.2-1.3,0.1c-0.5,0-0.3-0.1-0.5-0.1c0,0-0.1,0-0.3,0l-1.2,0l0.5,0.1c-0.5,0.1-1.1,0-0.6,0.2
						c-0.8-0.3-4.3-0.1-4.8-0.2c-0.7,0.1-1.4,0.1-2.3,0.1c0.2,0,0.4,0.2-0.4,0.2c0.3-0.3-1.4-0.1-2-0.4c0.5,0.2-2.2,0-1.3,0.3
						c-0.6,0,0-0.1-0.5-0.2c-1.5,0.1-3.3-0.1-5.2,0c0,0,0.3,0.1-0.1,0.2l-1-0.2c-0.4,0-0.3,0.3-1,0.1c0.1,0,0.2,0.1,0,0.1
						c-3.7-0.2-7.5,0.2-11.2-0.2c0.5,0.1,0.2,0.1-0.2,0.1c0.2,0,0,0.1,0,0.2l-1.6-0.2c-0.3,0.2-1.7,0-1.8,0.2l0.5,0
						c-0.7,0.2,0.9,0.4,0.8,0.7c0.7-0.2,1.9,0.3,3.1,0c0.3,0-0.2,0.1-0.1,0.1c0.3-0.1,0.7-0.1,1.4-0.1l-0.1,0c1.9,0,2.7,0.1,4.9,0.1
						l-0.2-0.1c0.5,0,0.6,0.1,0.8,0.1c0.5-0.2-1.3,0-0.8-0.2c0.6,0.2,3.3,0,3.7,0.3c0.7,0-0.2-0.1,0.5-0.1l0.2,0.1l0.2-0.1
						c0.5,0,0.7,0.1,0.7,0.2c-0.1,0-0.3,0-0.4,0c0.6,0.1,1.7,0,1.9,0l-0.7,0c1.9-0.1,4.3,0,6.2-0.1L35,15.1c1.4-0.1,1.1,0.1,2.7,0
						l-0.1,0C38,15,38.4,15,38.8,15c-0.4,0.1,0.7,0.1,0.2,0.2c1.6-0.1,0.8-0.1,1.8-0.3l0.2,0.1c0.3-0.1,0.4-0.1,1.2-0.2
						c-0.6,0.1,0.5,0.1-0.2,0.2c1.6,0.2,2.4-0.2,3.2,0.1c0.8-0.3-1.4-0.1-1-0.2c-0.4-0.1,0.6-0.2,1.1-0.2c0.5,0,0.9,0.3,2.2,0.3
						c-0.1,0-0.1,0-0.3,0c0.5,0.1,1-0.1,1.6,0c0.3-0.2,0.8,0,0.9-0.2l-1.2,0c0.7-0.1,1.3-0.3,2.5-0.2c-0.1,0-0.4,0.1-0.7,0.1
						c0.3,0.1,0.6,0,1,0c-0.1,0.2-1.5,0-2.2,0.2c0.4,0.1,1.4-0.1,1,0.1c0.5-0.3,1.3,0,2.2-0.2l-0.1,0.1c0.1,0,0.4-0.1,0.7-0.1
						l-0.5,0.2c0.7-0.1,1.4,0.1,2.1,0c-1.5,0-0.3-0.1-0.9-0.2c1.8-0.2,1,0.3,3,0.3c-0.3,0-1-0.1-0.6-0.1c0.4,0,0.9,0.1,1.1,0.1
						c1.3,0-0.2-0.1,0.4-0.2c0.5,0.1,0.7-0.1,1.2-0.1l0,0.1c1.5,0.1,0.4-0.3,1.8-0.2l-0.6,0.2l0.7,0l-0.1,0.1c0.8-0.1,1-0.1,1.8,0
						c-0.2-0.1,0.1-0.2,0.8-0.2c0.5,0.1-0.3,0.1,0.7,0.1c-0.2,0.1-0.5,0.2-0.9,0.1c0,0-0.2,0.1-0.3,0.1c0.5,0.1,1.2,0,1.6,0
						c-0.1,0-0.3,0-0.4,0l1.4-0.2c0.2,0,0,0.1-0.1,0.1c0.3,0,0.5-0.1,0.9-0.1c-0.1,0.1-0.1,0.2-0.7,0.2l1.3-0.1
						c0.1,0,0.7,0.1,0.5,0.2c0.7,0.1,1.8-0.2,2.8-0.1c0.1,0,0.2,0,0.4-0.1c0.9,0,1.7,0.1,2.8,0l0.6,0.2c0.8,0-0.8-0.2,0.6-0.3
						c1-0.1,0.4,0.1,0.7,0.2c0.5-0.1,1.4-0.3,2.3-0.1C77.1,15.3,76.8,15.3,76.6,15.3z M87,15.2c-0.2,0-0.6,0.1-0.8,0
						C86.5,15.1,86.6,15.2,87,15.2z M102.8,14.9c-0.2,0-0.4,0-0.6,0C102.4,14.9,102.6,14.9,102.8,14.9z M147,14.1
						C147,14.1,147,14.1,147,14.1C146.5,14,146.7,14.1,147,14.1z M147.9,14.1C148,14.1,148,14.1,147.9,14.1c0,0-0.2,0-0.5,0
						C147.5,14.1,147.7,14.2,147.9,14.1z M47.4,14.2l0.2,0C47.2,14.2,47.3,14.2,47.4,14.2z"/>
					<path class="st0" d="M101,15.1C101,15.1,101,15,101,15.1C100.9,15,100.9,15.1,101,15.1z"/>
					<path class="st0" d="M70.1,15.4C70.1,15.4,70.1,15.4,70.1,15.4C70,15.4,70,15.4,70.1,15.4L70.1,15.4z"/>
					<path class="st0" d="M133.4,15.2c-0.2,0-0.3,0-0.4-0.1C133.1,15.1,133.1,15.2,133.4,15.2z"/>
					<path class="st0" d="M152.9,13.9l-0.6,0C152.6,14,152.7,14,152.9,13.9C152.8,14,152.7,13.9,152.9,13.9z"/>
					<path class="st0" d="M158.1,14.7c0.1,0,0.2,0,0.3,0l0-0.1C158,14.6,157.7,14.7,158.1,14.7z"/>
					<path class="st0" d="M153.5,14.3c0,0.1,0.4,0.1,0.8,0c0,0,0,0-0.1,0C154.3,14.2,153.9,14.3,153.5,14.3z"/>
					<path class="st0" d="M154.4,14.4c0.1,0,0.3,0,0.4,0C154.8,14.3,154.6,14.4,154.4,14.4z"/>
					<path class="st0" d="M149.1,14.1c0.2,0,0.1-0.1,0.2-0.1C149.6,13.9,148,14.1,149.1,14.1z"/>
					<polygon class="st0" points="153.8,14.7 153.6,14.5 153.4,14.6 					"/>
					<path class="st0" d="M150.5,14.6l0.7,0c0,0,0.1,0,0.2,0C150.9,14.6,150.5,14.5,150.5,14.6z"/>
					<path class="st0" d="M151.3,14.6c0.2,0,0.4,0,0.5,0C151.8,14.5,151.5,14.6,151.3,14.6z"/>
					<polygon class="st0" points="152.9,14.7 152.7,14.7 152.2,14.7 					"/>
					<path class="st0" d="M143.3,14.5l-0.7,0c-0.1,0,0.1,0.1,0.4,0.1C143.1,14.6,143.4,14.6,143.3,14.5z"/>
					<path class="st0" d="M145.5,14.9c-0.2,0-0.2-0.1-0.3-0.1l0,0.2L145.5,14.9z"/>
					<path class="st0" d="M143.3,14.9c-0.1,0-1.1,0.1-0.1,0.1C143.3,15,144,15,143.3,14.9z"/>
					<polygon class="st0" points="132.3,14.7 132.5,14.7 132.5,14.5 					"/>
					<path class="st0" d="M122.6,15.3c0.9,0.1,0.2-0.2,1-0.1c0.2-0.1-0.6-0.1-0.4-0.1C122.6,15.2,122.3,15.2,122.6,15.3z"/>
					<path class="st0" d="M123.1,15.1c0.1,0,0.2,0,0.3,0C123.3,15.1,123.2,15.1,123.1,15.1z"/>
					<polygon class="st0" points="13.4,14.1 12.8,14 13.2,14.1 					"/>
					<path class="st0" d="M12.3,14.2l-0.1-0.2l-0.3,0.1C11.9,14.2,12.2,14.2,12.3,14.2z"/>
					<path class="st0" d="M88.5,15.5L88.5,15.5c0-0.1-0.2-0.1-0.4-0.1L88.5,15.5z"/>
					<polygon class="st0" points="81,15.4 81.1,15.4 80.9,15.3 					"/>
					<path class="st0" d="M74.6,15.6c0.3,0,0.6,0,0.8,0C74.9,15.6,74.5,15.4,74.6,15.6z"/>
				</g>
			</g>
		</g>
	</g>
</g>
</svg>
